PathFileType	4	(X/Y/Z)	s06c0102.trc
DataRate	CameraRate	NumFrames	NumMarkers	Units	OrigDataRate	OrigDataStartFrame	OrigNumFrames
200	200	4	48	mm	200	250	2000
Frame#	Time	racr			lacr			c7			jug			rlel			rdr			llel			ldr			s2			lic			ric			lasi			rasi			rpsi			lpsi			rgt			lgt			rth1			rth2			rth3			rth4			rlfc			rmfc			rsh1			rsh2			rsh3			rsh4			rlmal			rcal			rtoe			rmt5			lth1			lth2			lth4			lth3			llfc			lmfc			llmal			lcal			lmt5			lsh1			lsh2			lsh3			lsh4			ltoe			SBIKE			LBIKE			RBIKE			
		X1	Y1	Z1	X2	Y2	Z2	X3	Y3	Z3	X4	Y4	Z4	X5	Y5	Z5	X6	Y6	Z6	X7	Y7	Z7	X8	Y8	Z8	X9	Y9	Z9	X10	Y10	Z10	X11	Y11	Z11	X12	Y12	Z12	X13	Y13	Z13	X14	Y14	Z14	X15	Y15	Z15	X16	Y16	Z16	X17	Y17	Z17	X18	Y18	Z18	X19	Y19	Z19	X20	Y20	Z20	X21	Y21	Z21	X22	Y22	Z22	X23	Y23	Z23	X24	Y24	Z24	X25	Y25	Z25	X26	Y26	Z26	X27	Y27	Z27	X28	Y28	Z28	X29	Y29	Z29	X30	Y30	Z30	X31	Y31	Z31	X32	Y32	Z32	X33	Y33	Z33	X34	Y34	Z34	X35	Y35	Z35	X36	Y36	Z36	X37	Y37	Z37	X38	Y38	Z38	X39	Y39	Z39	X40	Y40	Z40	X41	Y41	Z41	X42	Y42	Z42	X43	Y43	Z43	X44	Y44	Z44	X45	Y45	Z45	X46	Y46	Z46	X47	Y47	Z47	X48	Y48	Z48	
250	1.2500	499.367477	1324.139435	-60.643452	520.698299	1323.652986	-369.154879	495.289892	1407.687355	-218.090999	517.406945	1252.366469	-214.563940	509.809582	1063.445805	32.206231	708.763501	934.093771	-51.899770	526.073351	1071.261329	-477.072996	633.977869	829.650017	-437.927034	-20.891221	1176.697188	-223.171811	148.916579	1129.868789	-399.988745	139.712407	1126.315325	-71.049304	150.731338	1067.143210	-372.246797	159.078479	1077.186049	-105.430519	20.937987	1214.259221	-201.533684	11.892773	1208.436181	-261.930294	110.748604	1076.974355	-39.800420	95.885565	1074.199433	-434.577733	192.962959	981.473912	-29.957116	264.596559	926.347758	-33.168261	298.045389	845.440857	-37.732456	289.920443	948.116845	-51.492410	343.205043	746.371446	-52.666599	333.056375	717.903940	-161.740218	323.612702	623.985566	-24.424544	328.244796	537.592041	-42.298671	291.985801	458.756897	-43.599260	347.914174	537.783883	-77.390957	265.411200	377.113410	-48.466933	202.317759	343.841424	-92.544670	479.746330	331.452598	-101.884081	384.627112	310.489222	-29.061486	144.746664	969.011972	-444.221394	216.562069	919.620139	-441.917868	243.638511	942.247255	-431.286531	254.992402	838.862167	-440.605274	285.004010	726.492594	-418.524776	290.703149	712.304831	-302.098778	25.198752	465.591250	-379.940908	-48.044192	485.574022	-327.865737	75.544125	331.829937	-399.054266	218.457816	639.226164	-432.282171	173.826673	570.427151	-403.434503	96.887556	525.846022	-394.862914	194.265515	559.345430	-371.692404	147.890929	282.673342	-343.191091	-154.281520	856.050755	-220.857889	-48.810519	80.070636	-414.700883	-48.828365	79.856180	-17.134551	
251	1.2550	500.030618	1324.309753	-60.691134	521.228449	1323.570290	-369.173329	495.801377	1407.711958	-218.249408	518.126906	1252.551927	-214.585870	510.061086	1063.651748	31.927522	708.914129	934.123791	-51.900728	526.592122	1071.518181	-477.694569	634.044252	829.668847	-437.961897	-20.255759	1176.372170	-223.000699	149.585141	1130.008307	-400.040508	140.438725	1125.858898	-71.253497	151.684994	1067.379912	-372.347804	160.155366	1077.026311	-105.857556	21.578985	1213.840179	-201.480169	12.518216	1208.154323	-261.904604	111.349555	1075.821659	-40.167760	96.762495	1074.423417	-434.808292	193.432446	980.196367	-29.564761	264.511377	924.355192	-32.673439	297.351721	843.163259	-37.421792	290.112497	946.023397	-50.863210	342.137962	743.918730	-51.873530	332.278686	715.874302	-161.216182	322.619150	621.615102	-23.697548	327.465188	535.332839	-41.826621	291.500006	456.258039	-43.076420	347.324833	535.510687	-76.685276	265.514454	374.573791	-48.121075	202.320355	341.592992	-92.292210	479.687735	328.295762	-101.798909	384.531902	307.544581	-28.981913	145.800980	969.512850	-444.664159	217.897666	920.525880	-442.492398	244.822929	943.229538	-431.835209	256.771167	840.013942	-441.504047	287.153351	727.905511	-419.362750	291.960571	712.900024	-303.144044	26.225849	468.353258	-380.022059	-46.819530	488.818522	-327.869617	75.949060	334.410756	-399.034276	220.287228	640.864554	-432.826621	175.480112	572.295523	-403.915263	98.269897	528.138839	-395.082186	195.817640	561.218449	-372.134111	148.103753	284.902664	-343.177019	-154.273416	856.056711	-220.873196	-48.795001	80.081390	-414.691751	-48.824438	79.851691	-17.130151	
252	1.2600	500.783756	1324.108739	-61.336175	521.687243	1323.498153	-369.236156	496.252610	1407.691262	-218.370816	518.700400	1252.702157	-214.615294	510.385279	1063.811086	31.702338	709.105109	934.112731	-51.908435	526.916003	1071.463732	-477.885874	634.141128	829.659613	-437.925621	-19.736912	1176.074230	-222.831816	150.331457	1130.055583	-399.986065	141.068963	1125.296868	-71.509832	152.554586	1067.428101	-372.388962	161.070231	1076.702983	-106.286249	22.347045	1213.258269	-201.442107	13.164518	1207.733859	-261.935682	111.931162	1074.628845	-40.479870	97.837182	1074.529230	-434.975928	193.669194	978.476360	-29.460350	264.473256	922.401485	-32.104494	296.629604	840.996981	-36.768627	290.237012	943.860301	-50.253724	341.155676	741.609393	-51.073264	331.488819	713.556005	-160.376509	321.697911	619.242155	-23.012936	326.813635	533.038828	-41.025785	291.116004	453.883568	-42.598433	346.828114	533.316626	-75.906191	265.750837	372.029039	-47.919019	202.342997	339.486371	-92.024348	479.589402	325.052738	-101.914687	384.492735	304.640372	-28.890081	147.064873	969.930492	-445.060680	219.308327	921.355852	-442.802398	246.088323	944.309747	-432.190417	258.772743	841.120106	-442.385578	289.472096	729.237639	-420.077734	293.660086	714.462360	-304.642948	27.355245	471.138043	-380.092534	-45.655466	492.010179	-327.926256	76.459241	337.111103	-399.075738	222.278508	642.452640	-433.340550	177.068083	574.185376	-404.218258	99.692220	530.407945	-395.253726	197.374829	562.964751	-372.417758	148.342806	287.211648	-343.241290	-154.220770	856.072048	-220.903236	-48.784941	80.086742	-414.699298	-48.808037	79.834384	-17.109005	
253	1.2650	501.484942	1324.464655	-61.353091	522.235751	1323.388443	-369.347439	496.649485	1407.611811	-218.483544	519.333912	1252.817044	-214.613408	510.743809	1064.014946	31.600869	709.246635	934.121464	-51.901573	527.199277	1071.347698	-478.007418	634.228060	829.679645	-437.892476	-19.099290	1175.736506	-223.043394	151.137525	1130.043005	-400.100968	141.767296	1124.627936	-71.775483	153.634184	1067.520509	-372.490603	162.101898	1076.356677	-106.806974	22.967120	1212.811858	-201.442144	13.792888	1207.396839	-262.086668	112.640922	1073.339389	-40.978721	98.953801	1074.432519	-435.144531	193.873611	977.072936	-29.216835	264.433230	920.493414	-31.499216	296.072181	838.843446	-36.295004	290.315693	941.726183	-49.620159	340.116283	739.320360	-50.186236	330.715199	711.307076	-159.495413	320.810850	616.963816	-22.302622	326.268988	530.741192	-40.411847	290.757841	451.527005	-42.165469	346.420560	531.235538	-75.203720	265.908919	369.642707	-47.643380	202.348590	337.564098	-91.779647	479.504677	321.739337	-101.795471	384.368578	301.683490	-28.795037	148.484046	970.302501	-445.493173	221.054716	922.073583	-443.321965	247.711222	945.051374	-432.458638	260.795687	842.009431	-442.934422	291.885231	730.446828	-420.743238	294.986846	715.254197	-305.772086	28.429582	474.004078	-380.129978	-44.453823	495.207946	-327.956663	76.964220	339.782146	-399.073374	224.314150	643.964213	-433.807242	178.764302	576.021887	-404.514633	101.132557	532.719195	-395.434896	198.973723	564.861090	-372.706368	148.629762	289.486008	-343.221550	-154.149068	856.102337	-220.946108	-48.777094	80.075245	-414.670613	-48.796071	79.846071	-17.112286	
